<?xml version="1.0" encoding="utf-8"?>
<!-- Generator: Adobe Illustrator 16.0.0, SVG Export Plug-In . SVG Version: 6.00 Build 0)  -->
<!DOCTYPE svg PUBLIC "-//W3C//DTD SVG 1.1//EN" "http://www.w3.org/Graphics/SVG/1.1/DTD/svg11.dtd">
<svg version="1.1" id="Layer_1" xmlns="http://www.w3.org/2000/svg" xmlns:xlink="http://www.w3.org/1999/xlink" x="0px" y="0px"
	 width="287.333px" height="289.333px" viewBox="0 0 287.333 289.333" enable-background="new 0 0 287.333 289.333"
	 xml:space="preserve">
<circle fill="none" stroke="#231F20" stroke-miterlimit="10" cx="144.063" cy="146.067" r="141.733"/>
<path fill="none" stroke="#231F20" stroke-miterlimit="10" d="M172.409,146.067c0-11.221-6.522-20.918-15.981-25.512h-24.729
	c-9.459,4.593-15.981,14.291-15.981,25.512c0,15.655,12.691,28.347,28.347,28.347C159.718,174.414,172.409,161.722,172.409,146.067z
	"/>
<polygon fill="none" stroke="#231F20" stroke-width="0.8686" stroke-miterlimit="10" points="93.042,75.201 93.042,11.337 
	53.357,31 53.357,75.201 47.687,75.201 47.687,216.933 98.711,216.933 98.711,75.201 "/>
<rect x="182.333" y="82.291" fill="none" stroke="#231F20" stroke-width="0.9487" stroke-miterlimit="10" width="76.536" height="127.559"/>
<polygon fill="none" stroke="#231F20" stroke-width="0.9487" stroke-miterlimit="10" points="151.149,20.846 151.149,2.587 
	136.977,2.587 136.977,20.846 118.551,20.846 118.551,63.366 169.575,63.366 169.575,20.846 "/>
<polygon fill="none" stroke="#231F20" stroke-width="0.8868" stroke-miterlimit="10" points="151.149,96.463 151.149,63.366 
	136.976,63.366 136.976,96.463 98.711,96.463 98.711,110.637 136.976,110.637 144.063,110.637 151.149,110.637 182.333,110.637 
	182.333,96.463 "/>
<rect x="98.711" y="138.983" fill="none" stroke="#231F20" stroke-width="1.0165" stroke-miterlimit="10" width="18.622" height="14.173"/>
</svg>
